<?xml version="1.0" standalone="no"?>
<!DOCTYPE svg PUBLIC "-//W3C//DTD SVG 20010904//EN"
 "http://www.w3.org/TR/2001/REC-SVG-20010904/DTD/svg10.dtd">
<svg version="1.0" xmlns="http://www.w3.org/2000/svg"
 width="1024.000000pt" height="1024.000000pt" viewBox="0 0 1024.000000 1024.000000"
 preserveAspectRatio="xMidYMid meet">

<g transform="translate(0.000000,1024.000000) scale(0.100000,-0.100000)"
fill="#000000" stroke="none">
<path d="M3717 10124 c-218 -39 -398 -162 -524 -356 -164 -253 -228 -660 -202
-1273 6 -143 13 -313 16 -377 3 -67 1 -118 -4 -118 -5 0 -28 89 -52 198 -187
846 -364 1374 -561 1673 -65 99 -185 214 -241 230 -37 12 -43 11 -55 -6 -19
-26 -13 -39 81 -184 119 -182 175 -285 269 -493 123 -271 198 -482 305 -853
44 -153 125 -478 134 -537 7 -43 8 -43 -108 -53 -38 -3 -144 -22 -235 -41
-273 -58 -400 -82 -495 -92 -102 -12 -259 -59 -355 -107 -80 -40 -216 -140
-278 -203 -57 -59 -218 -251 -298 -357 -212 -280 -430 -663 -543 -956 -42
-110 -101 -317 -122 -429 -7 -36 -12 -144 -12 -240 0 -148 3 -187 21 -254 29
-103 81 -211 130 -267 l40 -44 4 205 c3 137 9 215 18 235 l13 30 9 -45 c52
-266 118 -403 256 -531 88 -80 262 -177 262 -144 0 3 -16 43 -36 91 -19 47
-34 90 -32 96 2 6 25 -18 50 -53 56 -78 129 -151 186 -187 49 -31 47 -27 67
-157 25 -163 30 -268 15 -322 -20 -70 -99 -144 -228 -212 -57 -30 -114 -68
-129 -85 -23 -27 -25 -36 -20 -92 5 -72 35 -133 109 -225 54 -67 51 -52 32
-177 -10 -67 53 -121 195 -167 44 -15 83 -30 85 -34 3 -4 -6 -29 -19 -54 -29
-53 -32 -105 -9 -148 11 -23 37 -40 107 -73 57 -26 103 -55 119 -75 32 -37 58
-117 58 -175 1 -141 41 -250 103 -279 100 -48 317 -50 694 -8 280 32 311 31
350 -11 71 -76 118 -252 111 -411 -3 -66 -10 -113 -21 -133 -25 -49 -82 -92
-186 -142 -106 -51 -162 -100 -266 -232 -176 -224 -264 -293 -609 -472 -366
-191 -591 -343 -767 -518 -96 -96 -156 -167 -147 -175 2 -3 130 0 284 5 438
15 834 13 853 -4 13 -12 178 -15 1031 -22 1532 -10 2013 -9 2018 6 9 26 -47
394 -84 549 -30 129 -86 308 -131 419 -64 158 -125 266 -290 515 -224 338
-263 414 -298 577 -21 99 -38 295 -31 345 7 41 13 49 70 90 130 93 261 256
348 433 22 45 44 80 49 76 14 -8 10 -299 -6 -406 -8 -53 -24 -123 -35 -155
-12 -32 -23 -67 -26 -78 -3 -11 30 16 74 62 86 86 124 150 166 273 13 39 26
73 29 76 2 3 17 -32 32 -78 53 -163 173 -363 281 -473 101 -102 277 -212 569
-355 351 -172 590 -268 1100 -441 348 -119 1184 -330 1253 -317 9 2 -7 15 -39
32 -30 16 -76 45 -104 64 -63 43 -39 39 109 -18 162 -62 419 -150 424 -145 11
11 -219 310 -370 480 -72 80 -129 148 -127 149 2 2 54 -12 114 -30 253 -79
549 -117 743 -95 183 20 185 21 52 65 -118 39 -176 64 -167 72 3 3 76 0 164
-6 233 -17 454 6 607 64 133 50 170 86 136 129 -24 30 -136 93 -235 132 -283
111 -801 373 -1420 720 -375 210 -577 326 -1190 690 -132 78 -273 161 -312
185 l-73 42 0 107 c0 224 -87 429 -273 644 -27 32 -47 60 -45 62 3 3 48 -15
101 -39 166 -77 243 -97 399 -103 141 -6 284 11 353 42 l30 13 -35 13 c-95 35
-192 99 -341 226 -145 123 -348 364 -520 616 -102 150 -103 157 -26 157 81 0
205 57 280 129 72 67 74 66 -107 66 l-161 0 -67 33 c-87 42 -159 121 -209 227
-36 76 -55 130 -163 475 -50 160 -79 211 -217 380 -215 265 -514 505 -834 671
-313 163 -857 286 -1449 329 -86 6 -132 13 -138 22 -25 36 21 756 63 998 102
582 318 946 650 1092 37 17 66 35 63 39 -8 13 -118 9 -207 -7z"/>
</g>
</svg>
