<?xml version="1.0" standalone="no"?>
<!DOCTYPE svg PUBLIC "-//W3C//DTD SVG 20010904//EN"
 "http://www.w3.org/TR/2001/REC-SVG-20010904/DTD/svg10.dtd">
<svg version="1.0" xmlns="http://www.w3.org/2000/svg"
 width="1024.000000pt" height="1024.000000pt" viewBox="0 0 1024.000000 1024.000000"
 preserveAspectRatio="xMidYMid meet">

<g transform="translate(0.000000,1024.000000) scale(0.100000,-0.100000)"
fill="#000000" stroke="none">
<path d="M1 8023 c1 -1220 3 -2209 6 -2198 2 11 7 27 10 35 3 8 5 19 4 24 -1
4 4 14 10 22 7 8 9 17 7 20 -3 3 3 33 14 67 10 34 21 73 24 87 3 13 23 71 45
127 22 56 40 105 39 108 -2 10 34 65 43 65 5 0 7 10 6 23 -3 22 30 87 122 244
27 45 49 86 49 91 0 5 13 28 29 53 94 145 121 189 121 194 0 3 5 11 11 18 6 7
49 68 96 137 124 180 303 401 408 503 88 87 215 191 265 217 14 7 27 16 30 21
9 14 174 89 195 89 12 0 25 4 30 9 21 19 165 43 285 48 69 2 134 8 145 13 11
5 72 18 135 30 63 12 171 32 240 45 69 13 175 29 235 35 144 14 159 18 144 36
-7 8 -10 17 -7 20 3 3 -9 62 -28 132 -18 70 -38 147 -45 172 -6 25 -15 53 -20
62 -5 10 -9 28 -9 41 0 13 -4 27 -8 32 -5 6 -14 35 -21 65 -7 30 -33 114 -57
186 -24 73 -44 137 -44 143 0 6 -8 30 -18 54 -15 35 -66 178 -76 212 -2 6 -10
27 -20 47 -9 21 -16 39 -16 41 0 3 -10 26 -22 53 -13 27 -23 54 -23 59 -1 6
-11 29 -23 52 -12 23 -22 51 -22 63 0 11 -3 20 -8 20 -9 0 -37 54 -47 88 -6
21 -73 148 -120 227 -11 18 -33 55 -49 82 -16 26 -52 83 -80 125 l-51 78 -967
0 -968 0 1 -2217z"/>
<path d="M2043 10217 c100 -153 134 -208 184 -302 219 -407 447 -1055 589
-1675 18 -80 30 -147 26 -151 -4 -3 -74 -11 -157 -17 -169 -13 -331 -39 -515
-82 -71 -16 -186 -34 -265 -40 -173 -15 -311 -40 -391 -73 -177 -71 -336 -198
-521 -412 -349 -406 -692 -969 -821 -1350 -151 -444 -151 -915 0 -1185 36 -65
86 -130 99 -130 5 0 9 59 9 133 0 116 6 171 36 340 8 46 24 59 24 19 0 -43 65
-271 98 -344 64 -141 158 -254 277 -335 96 -65 294 -160 283 -135 -2 4 -17 34
-35 67 -30 59 -74 177 -72 199 0 6 11 -12 24 -41 38 -84 97 -163 184 -245 59
-57 75 -78 61 -78 -24 0 -24 9 0 -92 27 -107 37 -280 21 -344 -25 -100 -117
-183 -320 -290 -40 -21 -82 -51 -92 -66 -51 -71 -26 -197 72 -355 50 -82 51
-85 40 -128 -41 -163 47 -272 254 -316 33 -7 61 -13 63 -15 2 -1 -8 -24 -21
-51 -33 -64 -40 -103 -27 -139 16 -42 68 -92 125 -121 80 -40 109 -67 142
-130 40 -76 52 -131 62 -287 7 -127 8 -129 38 -156 45 -41 141 -54 323 -47
136 6 222 15 495 52 61 8 165 15 232 15 l121 0 42 -47 c23 -26 57 -79 75 -118
54 -113 70 -183 70 -325 0 -148 -16 -205 -75 -273 -33 -37 -54 -50 -132 -77
-176 -63 -197 -79 -314 -236 -45 -61 -101 -132 -123 -158 -23 -26 -41 -51 -41
-55 0 -14 -191 -181 -237 -207 -23 -14 -133 -68 -245 -120 -194 -90 -444 -221
-518 -271 l-35 -23 2053 0 c1800 0 2052 2 2052 15 0 40 -86 342 -126 444 -56
141 -170 376 -236 488 -52 89 -182 283 -303 453 -163 231 -242 453 -252 712
l-6 148 111 115 c62 64 139 157 173 208 61 92 165 297 189 371 20 61 29 26 37
-131 7 -161 -8 -330 -41 -469 -13 -51 -20 -94 -16 -94 4 0 35 18 69 41 108 72
166 164 205 327 l23 97 43 -135 c100 -323 139 -399 265 -526 164 -166 459
-332 1005 -569 41 -18 118 -52 170 -75 372 -164 1047 -379 1450 -460 138 -28
301 -49 290 -37 -3 2 -46 32 -96 66 -127 84 -131 97 -13 39 145 -71 229 -102
439 -163 207 -60 212 -59 164 23 -40 70 -89 135 -184 248 -47 56 -112 134
-145 175 -71 86 -199 269 -190 269 4 0 37 -13 73 -29 228 -100 390 -139 608
-148 162 -6 342 12 454 46 l55 17 -100 17 c-55 10 -134 29 -175 42 -74 25 -75
25 -25 20 329 -32 710 -1 859 70 65 31 106 75 106 115 0 76 -149 173 -430 280
-138 53 -388 162 -435 190 -16 9 -84 46 -150 80 -146 76 -335 179 -430 233
-153 88 -190 110 -455 267 -269 159 -494 294 -628 376 -67 42 -383 228 -652
385 l-145 85 -6 159 c-8 184 -23 262 -78 386 -36 80 -128 230 -150 244 -15 9
-162 185 -155 185 3 0 18 -8 32 -19 50 -35 247 -129 312 -149 207 -63 521 -60
671 5 l43 19 -59 24 c-87 34 -233 124 -306 187 -35 30 -90 77 -121 104 -61 53
-241 250 -351 386 -83 102 -226 313 -266 391 l-30 59 98 5 c129 6 217 44 294
128 45 48 85 125 72 138 -2 2 -50 0 -107 -6 -129 -12 -253 -1 -348 32 -92 33
-129 56 -183 116 -53 59 -74 112 -151 384 -59 205 -107 336 -150 410 -61 105
-310 380 -462 512 -521 451 -1197 704 -2019 754 -88 6 -180 10 -204 10 l-44 0
7 163 c16 379 46 658 102 939 89 456 215 753 430 1016 l27 32 -215 0 -214 0
-52 -86 c-127 -213 -193 -436 -233 -779 -14 -120 -17 -770 -6 -1075 6 -135 5
-211 -1 -205 -5 6 -35 123 -67 260 -84 368 -152 652 -190 794 -106 398 -237
738 -371 960 l-78 131 -129 0 -129 0 15 -23z"/>
<path d="M2394 10213 c8 -16 30 -52 50 -82 20 -29 36 -58 36 -64 0 -6 6 -18
14 -26 8 -9 31 -54 51 -101 21 -47 50 -112 65 -145 15 -33 33 -78 40 -100 7
-22 17 -49 21 -60 11 -24 49 -147 74 -235 10 -36 22 -69 27 -75 4 -5 8 -21 8
-36 0 -15 4 -30 9 -33 5 -3 11 -20 14 -38 14 -79 20 -104 28 -114 5 -6 11 -26
13 -45 3 -19 5 -34 6 -34 1 0 3 -15 6 -34 2 -19 8 -39 13 -45 6 -7 14 -34 19
-61 8 -43 10 -32 11 80 3 360 51 741 112 890 7 17 13 35 15 42 5 27 27 89 34
98 5 6 18 34 30 64 11 30 29 66 39 80 10 14 28 43 40 64 l21 37 -405 0 -406 0
15 -27z"/>
<path d="M3769 10172 c-68 -72 -99 -109 -99 -118 0 -2 -17 -28 -38 -57 -47
-64 -124 -205 -128 -232 -1 -11 -12 -42 -25 -70 -12 -27 -21 -56 -20 -63 1 -8
-3 -19 -9 -27 -6 -7 -20 -46 -31 -86 -11 -41 -26 -91 -35 -112 -8 -21 -12 -42
-9 -46 2 -5 -2 -22 -11 -39 -8 -17 -16 -50 -16 -74 -1 -24 -5 -47 -9 -53 -11
-15 -28 -117 -22 -132 3 -7 0 -19 -5 -26 -6 -7 -13 -39 -16 -72 -3 -33 -10
-88 -16 -122 -6 -35 -8 -74 -6 -87 2 -13 2 -27 -2 -30 -3 -4 -7 -14 -8 -24 -8
-56 -25 -267 -30 -389 l-7 -143 60 0 c129 0 433 -35 616 -71 54 -10 101 -18
105 -17 4 1 14 -1 22 -4 8 -4 65 -18 126 -32 105 -25 149 -37 304 -87 73 -23
103 -35 143 -55 16 -8 35 -14 43 -14 8 0 32 -9 52 -19 20 -11 96 -48 167 -82
194 -94 377 -214 564 -370 118 -98 331 -310 331 -328 0 -6 11 -18 25 -27 14
-9 25 -22 25 -28 0 -6 9 -19 20 -29 37 -31 162 -230 157 -249 -3 -10 -1 -21 4
-24 15 -9 44 -81 68 -169 13 -44 31 -107 41 -140 10 -33 29 -96 41 -140 13
-44 28 -89 35 -100 13 -20 14 -23 14 -50 0 -40 139 -146 200 -153 3 0 19 -6
35 -12 58 -23 72 -24 250 -22 107 2 186 -1 195 -7 10 -7 15 -28 16 -67 1 -55
-6 -73 -50 -152 -19 -34 -68 -82 -82 -82 -7 0 -14 -3 -16 -8 -8 -19 -152 -83
-198 -89 -46 -5 -50 -8 -44 -27 16 -51 220 -322 342 -454 45 -50 82 -94 82
-99 0 -10 172 -183 183 -183 8 0 61 -40 115 -88 27 -24 185 -122 196 -122 3 0
25 -9 49 -20 23 -10 60 -25 82 -32 33 -11 41 -18 43 -42 2 -19 -4 -36 -20 -53
-45 -50 -231 -119 -301 -112 -12 1 -30 -2 -40 -6 -33 -14 -306 2 -387 23 -41
11 -83 23 -92 27 -27 11 -22 -10 12 -60 28 -41 65 -128 95 -225 21 -68 35
-190 35 -300 l0 -98 110 -64 c61 -34 139 -79 173 -99 34 -20 78 -45 97 -56 52
-28 289 -172 335 -203 22 -15 58 -36 80 -48 37 -19 208 -122 230 -139 6 -5 24
-15 40 -23 17 -8 75 -42 130 -76 55 -34 116 -70 135 -80 19 -11 49 -28 65 -40
17 -11 37 -24 45 -27 8 -4 29 -16 45 -27 17 -10 66 -40 110 -65 44 -25 96 -55
115 -67 19 -11 58 -32 85 -46 28 -14 52 -29 55 -33 3 -4 35 -22 72 -41 36 -18
126 -66 200 -107 73 -41 192 -104 263 -141 72 -36 152 -78 179 -93 27 -15 56
-27 65 -27 9 0 38 -13 65 -29 27 -16 54 -27 61 -25 6 3 34 -6 61 -20 27 -13
72 -31 99 -41 28 -9 60 -23 72 -31 12 -8 31 -14 41 -14 10 0 29 -9 42 -20 13
-11 28 -20 34 -20 7 0 46 -22 88 -50 98 -64 138 -121 138 -195 0 -126 -141
-212 -410 -250 -79 -11 -133 -24 -175 -44 -72 -34 -229 -76 -340 -91 -124 -17
-360 -28 -413 -20 -164 27 -203 34 -257 50 -127 38 -124 39 -62 -34 127 -149
221 -268 242 -304 11 -17 22 -32 26 -32 3 0 24 -37 46 -82 29 -58 43 -102 48
-146 l6 -63 -28 5 c-15 2 -44 10 -63 15 -105 33 -351 82 -455 91 -125 11 -262
31 -380 55 -83 17 -385 94 -397 101 -4 3 -18 7 -30 10 -57 13 -74 16 -85 18
-7 1 -16 5 -19 9 -4 4 -16 7 -26 7 -10 0 -26 4 -36 9 -9 5 -37 15 -62 22 -55
15 -150 45 -182 58 -12 5 -43 15 -68 22 -25 7 -51 17 -57 22 -7 5 -13 6 -13 2
0 -4 -10 -1 -23 8 -12 8 -38 18 -57 22 -19 4 -39 11 -45 15 -5 4 -34 15 -63
24 -29 9 -76 27 -105 40 -29 13 -68 29 -87 36 -47 17 -101 39 -122 50 -10 6
-23 10 -29 10 -15 0 -138 58 -171 81 -14 11 -34 19 -45 19 -10 0 -42 14 -72
30 -30 17 -60 30 -67 30 -7 0 -66 27 -131 60 -64 33 -121 60 -127 60 -5 0 -19
8 -30 18 -12 11 -41 27 -66 36 -25 10 -67 32 -95 51 -27 18 -89 58 -137 88
-47 30 -103 71 -125 90 -21 19 -43 36 -49 38 -27 10 -207 239 -210 267 0 4 -9
27 -21 52 -11 25 -29 71 -39 102 -16 51 -34 76 -34 48 0 -22 -68 -108 -115
-147 -27 -22 -79 -55 -115 -73 -36 -18 -72 -36 -81 -40 -26 -13 -106 -23 -112
-13 -3 4 4 26 14 48 32 64 69 203 76 282 3 40 10 73 14 73 5 0 9 20 9 45 0 25
-4 45 -10 45 -5 0 -10 -4 -10 -9 0 -15 -87 -140 -141 -203 -27 -31 -49 -61
-49 -66 0 -6 -32 -37 -70 -69 l-71 -58 5 -130 c3 -71 12 -159 21 -195 9 -35
17 -71 19 -80 2 -8 6 -23 10 -32 4 -9 9 -22 10 -30 1 -7 11 -29 21 -48 11 -19
18 -41 16 -48 -1 -7 12 -35 28 -61 17 -26 31 -51 31 -55 0 -7 35 -61 119 -185
13 -20 30 -42 37 -49 7 -7 21 -26 31 -42 9 -17 21 -30 25 -30 4 0 8 -6 8 -14
0 -8 4 -16 9 -18 12 -4 146 -218 155 -246 4 -12 13 -28 20 -35 20 -20 195
-364 189 -371 -3 -3 0 -13 8 -22 13 -16 79 -195 83 -224 1 -8 7 -26 14 -38 8
-13 11 -26 9 -29 -3 -2 -1 -19 5 -36 5 -18 11 -39 13 -47 2 -8 4 -15 5 -15 1
0 3 -12 5 -28 2 -15 9 -52 15 -82 l11 -55 2450 0 2449 0 0 5120 0 5120 -3203
0 -3204 0 -64 -68z"/>
<path d="M0 2575 l0 -2575 509 0 c448 0 510 2 521 16 8 8 34 27 59 41 25 14
71 42 101 62 30 19 111 64 180 99 69 35 153 80 187 98 33 19 65 34 70 32 8 -2
282 131 317 154 36 25 186 165 186 175 0 7 84 108 92 111 5 2 8 8 8 13 0 8 18
31 55 73 26 28 65 86 65 94 0 5 15 21 34 36 19 14 40 31 48 38 32 31 99 66
178 92 47 16 99 39 115 51 60 44 90 203 64 345 -7 41 -13 78 -13 82 -1 3 -4
10 -8 14 -5 4 -8 14 -8 23 0 20 -44 105 -78 150 l-25 33 -137 -4 c-75 -3 -141
-8 -147 -11 -5 -3 -38 -9 -74 -12 -35 -4 -80 -9 -99 -11 -19 -3 -46 -5 -60 -5
-14 0 -32 -2 -40 -5 -28 -10 -194 -19 -355 -19 -152 1 -163 2 -220 28 -99 45
-124 100 -125 269 0 53 -4 99 -9 102 -4 3 -11 24 -15 47 -6 40 -33 99 -58 129
-7 8 -35 26 -63 40 -80 40 -161 117 -170 162 -4 15 -11 30 -16 33 -13 9 -11
79 3 93 7 7 8 12 4 12 -5 0 -3 7 4 15 10 12 8 16 -11 24 -92 35 -132 52 -142
61 -60 48 -87 74 -87 85 0 7 -7 18 -14 25 -26 21 -41 114 -29 183 l10 62 -43
65 c-24 36 -55 96 -69 135 -29 76 -46 205 -27 205 6 0 9 7 6 15 -10 24 68 135
95 135 6 0 11 4 11 8 0 4 21 18 48 31 85 41 186 109 232 156 l45 46 -1 157
c-1 128 -5 167 -21 211 -11 30 -26 58 -34 62 -35 18 -88 39 -101 40 -7 0 -47
18 -88 39 -41 22 -86 45 -100 52 -52 25 -187 128 -231 175 -54 58 -127 163
-152 218 l-18 40 6 -117 c5 -111 4 -117 -16 -123 -11 -4 -36 1 -57 10 -43 20
-132 86 -132 97 0 4 -15 29 -33 55 -50 71 -125 271 -111 294 3 5 0 9 -5 9 -8
0 -11 -769 -11 -2575z"/>
</g>
</svg>
